<?xml version="1.0" standalone="no"?>
<!DOCTYPE svg PUBLIC "-//W3C//DTD SVG 20010904//EN"
 "http://www.w3.org/TR/2001/REC-SVG-20010904/DTD/svg10.dtd">
<svg version="1.0" xmlns="http://www.w3.org/2000/svg"
 width="260.000000pt" height="260.000000pt" viewBox="0 0 260.000000 260.000000"
 preserveAspectRatio="xMidYMid meet">
<metadata>
Created by potrace 1.11, written by Peter Selinger 2001-2013
</metadata>
<g transform="translate(0.000000,260.000000) scale(0.100000,-0.100000)"
fill="#000000" stroke="none">
<path d="M875 2489 c-117 -117 -128 -125 -202 -135 -26 -3 -59 -11 -73 -16
-14 -5 -26 -9 -28 -8 -1 1 -33 -3 -71 -10 l-69 -11 -51 -158 -51 -157 -125
-102 c-71 -59 -125 -110 -125 -120 0 -21 36 -236 45 -275 6 -21 -6 -59 -50
-165 -32 -75 -62 -142 -67 -149 -13 -16 -5 -27 101 -167 67 -88 91 -127 92
-150 1 -48 9 -168 14 -196 2 -14 4 -42 4 -63 1 -41 -17 -30 227 -143 l72 -33
87 -140 87 -141 116 7 c223 12 200 16 355 -75 l137 -82 33 19 c17 10 79 47
137 81 117 71 104 68 322 57 l117 -6 32 52 c18 29 39 62 46 75 56 103 98 154
147 177 261 120 246 112 247 147 1 39 8 149 14 198 2 19 4 49 4 66 1 22 27 64
101 161 l100 131 -29 69 c-15 37 -37 88 -48 113 -44 96 -54 125 -49 150 3 14
8 41 11 60 3 19 10 60 16 90 17 96 22 160 12 160 -6 0 -21 10 -34 23 -13 12
-40 34 -59 49 -19 14 -44 34 -55 45 -11 10 -37 31 -57 47 -35 26 -42 41 -89
187 -29 87 -57 159 -63 160 -6 0 -18 2 -26 4 -8 1 -76 15 -150 30 l-135 27
-113 112 c-64 62 -121 110 -130 109 -9 -1 -81 -21 -160 -44 l-142 -43 -143 43
c-78 23 -149 44 -157 47 -10 2 -57 -38 -125 -107z m309 -279 c55 -17 108 -30
118 -30 10 0 66 14 123 32 l103 32 37 -37 c20 -20 44 -37 54 -38 9 -1 77 -2
151 -3 144 -2 194 -13 247 -53 72 -53 104 -146 106 -309 1 -99 1 -102 29 -120
15 -11 30 -24 32 -29 2 -6 -5 -62 -16 -124 l-19 -113 46 -110 c50 -117 50
-120 3 -169 -7 -8 -26 -32 -43 -54 l-30 -40 -1 -202 c-1 -117 -7 -223 -14
-252 -26 -108 -100 -180 -205 -198 -27 -5 -124 -8 -215 -7 -152 1 -224 10
-259 33 -9 6 -32 -3 -72 -26 -32 -19 -62 -33 -66 -30 -4 2 -51 29 -103 59 -94
55 -106 58 -182 49 -5 -1 -8 -17 -8 -36 0 -23 -6 -37 -17 -43 -21 -10 -230 -9
-240 2 -4 4 -7 67 -8 141 l0 134 -107 50 c-76 35 -108 56 -109 68 -1 10 -3 32
-4 48 -2 17 -6 63 -9 102 -5 71 -7 74 -77 168 l-72 95 48 110 47 110 -11 62
c-6 35 -13 77 -16 93 -3 17 -7 40 -9 53 -4 18 11 36 87 98 63 52 96 87 104
110 l12 34 -57 0 c-31 0 -63 4 -71 9 -10 7 -14 40 -14 140 0 72 3 134 7 138 4
5 119 9 254 9 136 1 250 2 253 3 3 1 23 17 43 36 21 19 40 35 44 35 4 0 52
-14 106 -30z"/>
<path d="M523 2020 l0 -100 26 -1 c14 0 72 0 129 1 l102 1 0 -746 0 -746 88 3
87 3 0 740 0 740 124 2 c68 1 126 5 129 8 3 3 6 48 7 100 l1 95 -347 0 -346 0
0 -100z"/>
<path d="M1485 2104 c-75 -27 -120 -92 -133 -191 -9 -75 -8 -1246 2 -1298 10
-50 37 -104 68 -132 46 -42 100 -52 290 -52 207 0 248 9 302 69 57 63 60 87
60 469 l1 345 -143 0 c-79 1 -146 -3 -150 -8 -4 -7 -6 -149 -3 -188 1 -4 30
-7 66 -5 l65 3 0 -196 c0 -268 -9 -282 -184 -286 -116 -3 -156 9 -185 58 -20
31 -20 51 -21 568 0 328 4 549 10 571 5 19 22 46 36 60 24 23 32 24 149 24
109 0 125 -2 145 -20 41 -37 50 -69 50 -172 l0 -98 83 0 82 0 1 135 c0 147 -7
195 -37 254 -46 90 -102 107 -339 105 -122 -1 -187 -6 -215 -15z"/>
</g>
</svg>
